<?xml version="1.0" encoding="UTF-8"?>
<svg width="128px" height="128px" viewBox="0 0 128 128" version="1.1" xmlns="http://www.w3.org/2000/svg" xmlns:xlink="http://www.w3.org/1999/xlink">
    <!-- Generator: Sketch 62 (91390) - https://sketch.com -->
    <title>icon</title>
    <desc>Created with Sketch.</desc>
    <g id="icon" stroke="none" stroke-width="1" fill="none" fill-rule="evenodd">
        <g id="wporg-icon">
            <g id="Group" transform="translate(20.000000, 20.000000)">
                <path d="M49.1806235,88.723286 C52.2431532,88.723286 54.1797528,86.8767608 54.5400504,83.5890451 L55.4407945,75.8426465 C56.4316129,75.4823489 57.4224313,75.0319769 58.7735473,74.4014561 L64.8986067,79.2654738 C66.1596483,80.2562922 67.3756527,80.7517014 68.5916572,80.7517014 C69.9878104,80.7517014 71.3389264,80.1662178 72.3747821,79.1303622 L79.535697,71.9694472 C81.3371851,70.1679592 81.2471107,67.4206899 79.2654738,64.9436439 L74.4464933,58.8185845 C75.2571629,57.0621337 75.6174605,56.2514641 75.8876837,55.4407945 L83.5440079,54.5400504 C86.7866864,54.1347156 88.723286,52.1530788 88.723286,49.1806235 L88.723286,39.5426625 C88.723286,36.5702072 86.7866864,34.5885704 83.5440079,34.1832356 L75.8426465,33.2824916 C75.4373117,32.2015987 74.9869397,31.1207059 74.4464933,29.9047015 L79.2654738,23.7796421 C81.2471107,21.3025961 81.3371851,18.5553268 79.535697,16.7538388 L72.3747821,9.59292382 C71.3389264,8.5570682 69.9878104,7.97158458 68.5916572,7.97158458 C67.3756527,7.97158458 66.1596483,8.46699379 64.8986067,9.45781222 L58.7735473,14.3218299 C57.4224313,13.6913091 56.4316129,13.2409371 55.4407945,12.8806395 L54.5400504,5.13424092 C54.1797528,1.84652524 52.2881904,0 49.1806235,0 L39.5426625,0 C36.4350956,0 34.5435332,1.84652524 34.1832356,5.13424092 L33.2824916,12.8806395 C32.2916731,13.2409371 31.3008547,13.6913091 29.9497387,14.3218299 L23.8246793,9.45781222 C22.5636377,8.46699379 21.3476333,7.97158458 20.1316289,7.97158458 C18.7354756,7.97158458 17.3843596,8.5570682 16.348504,9.59292382 L9.18758901,16.7538388 C7.38610097,18.5553268 7.47617537,21.3025961 9.45781222,23.7796421 L14.2767927,29.9047015 C13.7363463,31.1207059 13.2859743,32.2015987 12.8806395,33.2824916 L5.17927812,34.1832356 C1.93659964,34.5885704 0,36.5702072 0,39.5426625 L0,49.1806235 C0,52.1530788 1.93659964,54.1347156 5.17927812,54.5400504 L12.8356023,55.4407945 C13.1058255,56.2514641 13.4661231,57.0621337 14.2767927,58.8185845 L9.45781222,64.9436439 C7.47617537,67.4206899 7.38610097,70.1679592 9.18758901,71.9694472 L16.348504,79.1303622 C17.3843596,80.1662178 18.7354756,80.7517014 20.1316289,80.7517014 C21.3476333,80.7517014 22.5636377,80.2562922 23.8246793,79.2654738 L29.9497387,74.4014561 C31.3008547,75.0319769 32.2916731,75.4823489 33.2824916,75.8426465 L34.1832356,83.5890451 C34.5435332,86.8767608 36.4801328,88.723286 39.5426625,88.723286 L49.1806235,88.723286 Z" id="Path" fill="#000000" fill-rule="nonzero"></path>
                <path d="M48.5050655,83.4539335 L40.2182205,83.4539335 C39.8128857,83.4539335 39.5426625,83.2737847 39.4525881,82.8234127 L38.3716953,73.5007121 C38.2365837,72.4198193 37.5159885,71.5641124 36.4350956,71.2938892 C34.3633844,70.6633684 32.5168591,69.897736 30.9405571,68.996992 C29.9947759,68.4565456 28.8688459,68.54662 28.013139,69.222178 L20.6270381,75.0319769 C20.3117777,75.2684222 20.0309989,75.2979779 19.8148731,75.1206439 L13.8264207,69.1321036 C13.4661231,68.771806 13.4661231,68.4115084 13.8264207,67.9611364 L19.4560708,60.7551842 C20.1316289,59.8994774 20.2217033,58.7735473 19.7262941,57.8277661 C18.600364,55.7560549 17.8347316,53.9545668 17.3843596,52.2881904 C17.0690992,51.2523348 16.2133924,50.4867024 15.1324995,50.3515908 L5.94491054,49.2706979 C5.49453853,49.1806235 5.26935252,48.9554375 5.26935252,48.5501027 L5.26935252,40.1731833 C5.26935252,39.7678485 5.44950132,39.4976253 5.89987333,39.4075509 L15.1775367,38.3266581 C16.2584296,38.1915465 17.1141364,37.4709513 17.4293968,36.4350956 C17.924806,34.6786448 18.6904384,32.8321196 19.7262941,30.8955199 C20.2217033,29.9497387 20.1316289,28.8238087 19.4560708,27.9681018 L13.8264207,20.7621497 C13.4661231,20.3117777 13.4661231,19.9514801 13.8264207,19.5911824 L19.7262941,13.6913091 C19.9965173,13.4210859 20.2667405,13.4210859 20.6270381,13.6913091 L28.013139,19.501108 C28.8688459,20.1766661 29.9947759,20.2667405 30.9405571,19.7262941 C32.5168591,18.82555 34.3633844,18.0599176 36.4350956,17.4293968 C37.5159885,17.1141364 38.2365837,16.2584296 38.3716953,15.2225739 L39.4525881,5.89987333 C39.5426625,5.44950132 39.8128857,5.26935252 40.2182205,5.26935252 L48.5050655,5.26935252 C48.9104003,5.26935252 49.1806235,5.44950132 49.2706979,5.89987333 L50.3515908,15.2225739 C50.4867024,16.2584296 51.2072976,17.1141364 52.2881904,17.4293968 C54.3599016,18.0599176 56.2064269,18.82555 57.7827289,19.7262941 C58.7285101,20.2667405 59.8544402,20.1766661 60.710147,19.501108 L68.096248,13.6913091 C68.4565456,13.4210859 68.7267688,13.4210859 68.996992,13.6913091 L74.8968653,19.5911824 C75.2571629,19.9514801 75.2571629,20.3117777 74.8968653,20.7621497 L69.2672152,27.9681018 C68.5916572,28.8238087 68.5015828,29.9497387 68.996992,30.8955199 C70.0328476,32.8321196 70.79848,34.6786448 71.2938892,36.4350956 C71.6091496,37.4709513 72.4648565,38.1915465 73.5457493,38.3266581 L82.8234127,39.4075509 C83.2737847,39.4976253 83.4539335,39.7678485 83.4539335,40.1731833 L83.4539335,48.5501027 C83.4539335,48.9554375 83.2287475,49.1806235 82.7783755,49.2706979 L73.5907865,50.3515908 C72.5098937,50.4867024 71.6541868,51.2523348 71.3389264,52.2881904 C70.8885544,53.9545668 70.122922,55.7560549 68.996992,57.8277661 C68.5015828,58.7735473 68.5916572,59.8994774 69.2672152,60.7551842 L74.8968653,67.9611364 C75.2571629,68.4115084 75.2571629,68.771806 74.8968653,69.1321036 L68.996992,75.0319769 C68.771806,75.3022001 68.4565456,75.3022001 68.096248,75.0319769 L60.710147,69.222178 C59.8544402,68.54662 58.7285101,68.4565456 57.7827289,68.996992 C56.2064269,69.897736 54.3599016,70.6633684 52.2881904,71.2938892 C51.2072976,71.5641124 50.4867024,72.4198193 50.3515908,73.5007121 L49.2706979,82.8234127 C49.1806235,83.2737847 48.9104003,83.4539335 48.5050655,83.4539335 Z" id="Path" fill="#CBCCBE" fill-rule="nonzero"></path>
                <path d="M44.3166058,67.7359503 C57.1522081,67.7359503 67.7359503,57.1522081 67.7359503,44.3166058 C67.7359503,31.5260407 57.1522081,20.9422985 44.3166058,20.9422985 C31.5260407,20.9422985 20.9422985,31.5260407 20.9422985,44.3166058 C20.9422985,57.1522081 31.5260407,67.7359503 44.3166058,67.7359503 Z" id="Path" fill="#000000" fill-rule="nonzero"></path>
                <path d="M44.3166058,62.4215606 C34.4084216,62.4215606 26.2566882,54.2698272 26.2566882,44.3166058 C26.2566882,34.4084216 34.4084216,26.2566882 44.3166058,26.2566882 C54.2698272,26.2566882 62.4215606,34.4084216 62.4215606,44.3166058 C62.4215606,54.2698272 54.2698272,62.4215606 44.3166058,62.4215606 Z" id="Path" fill="#666660" fill-rule="nonzero"></path>
                <path d="M44.3166058,55.2156085 C50.3065536,55.2156085 55.2156085,50.3065536 55.2156085,44.3166058 C55.2156085,38.3716953 50.3065536,33.4626404 44.3166058,33.4626404 C38.3716953,33.4626404 33.4626404,38.3716953 33.4626404,44.3166058 C33.4626404,50.3065536 38.3716953,55.2156085 44.3166058,55.2156085 Z" id="Path" fill="#000000" fill-rule="nonzero"></path>
                <path d="M44.3166058,49.9462559 C41.2540761,49.9462559 38.7319929,47.4241727 38.7319929,44.3166058 C38.7319929,41.2540761 41.2540761,38.7319929 44.3166058,38.7319929 C47.4241727,38.7319929 49.9462559,41.2540761 49.9462559,44.3166058 C49.9462559,47.4241727 47.4241727,49.9462559 44.3166058,49.9462559 Z" id="Path" fill="#FFFFFF" fill-rule="nonzero"></path>
            </g>
        </g>
    </g>
</svg>